<svg width="570" height="637" viewBox="0 0 570 637" fill="none" xmlns="http://www.w3.org/2000/svg">
<g id="me">
<path id="Vector" d="M164.734 450.808H201.575L292.363 415.283C292.363 415.283 356.836 388.967 351.573 438.966C346.31 488.965 337.099 556.069 337.099 556.069C337.099 556.069 308.152 542.912 292.363 546.859C276.574 550.806 287.1 466.597 287.1 466.597C287.1 466.597 158.155 528.438 146.313 520.544C134.471 512.649 131.84 457.387 131.84 457.387L164.734 450.808Z" fill="#2F2E41"/>
<path id="Vector_2" opacity="0.1" d="M164.734 450.808H201.575L292.363 415.283C292.363 415.283 356.836 388.967 351.573 438.966C346.31 488.965 337.099 556.069 337.099 556.069C337.099 556.069 308.152 542.912 292.363 546.859C276.574 550.806 287.1 466.597 287.1 466.597C287.1 466.597 158.155 528.438 146.313 520.544C134.471 512.649 131.84 457.387 131.84 457.387L164.734 450.808Z" fill="black"/>
<g id="left-arm">
<path id="Vector_3" d="M222.778 335.434L267.364 399.494L371.309 486.334C371.309 486.334 467.36 508.702 454.202 524.491C441.045 540.28 360.783 508.702 360.783 508.702C360.783 508.702 241.048 421.861 237.101 415.283C233.154 408.704 189.734 346.863 189.734 346.863L222.778 335.434Z" fill="#A0616A"/>
</g>
<path id="Vector_4" d="M196.312 283.706L225.259 340.284C225.259 340.284 218.68 367.915 208.154 370.547C197.628 373.178 152.892 336.337 152.892 336.337L196.312 283.706Z" fill="#D0CDE1"/>
<path id="Vector_5" opacity="0.1" d="M196.312 283.706L225.259 340.284C225.259 340.284 218.68 367.915 208.154 370.547C197.628 373.178 152.892 336.337 152.892 336.337L196.312 283.706Z" fill="black"/>
<path id="Vector_6" d="M549.451 421.514L558.002 456.786C558.097 457.179 558.082 457.591 557.959 457.976L519.171 579.188C519.018 579.668 518.704 580.08 518.283 580.357C517.862 580.634 517.359 580.758 516.857 580.709C516.355 580.659 515.886 580.439 515.527 580.086C515.168 579.732 514.941 579.266 514.884 578.765L509.518 531.546C509.483 531.232 509.515 530.915 509.613 530.615L545.215 421.351C545.364 420.895 545.657 420.5 546.051 420.226C546.444 419.952 546.916 419.814 547.395 419.832C547.874 419.851 548.334 420.025 548.705 420.328C549.076 420.632 549.338 421.048 549.451 421.514Z" fill="#2F2E41"/>
<path id="Vector_7" d="M546.306 424.493L554.2 454.756L519.99 565.28L512.096 531.07L546.306 424.493Z" fill="#F2F2F2"/>
<path id="Vector_8" d="M373.941 588.964C375.256 592.911 510.78 587.648 512.096 586.332C513.243 584.684 514.213 582.92 514.99 581.069C516.227 578.437 517.359 575.806 517.359 575.806L512.096 533.201L377.888 528.438C377.888 528.438 374.533 564.543 373.848 581.069C373.677 585.24 373.677 588.174 373.941 588.964Z" fill="#2F2E41"/>
<path id="Vector_9" opacity="0.1" d="M494.991 538.965L497.622 575.806H438.413V538.965H494.991Z" fill="black"/>
<path id="Vector_10" opacity="0.1" d="M418.677 550.806L419.03 550.736L417.361 566.596H384.467V550.806H418.677Z" fill="black"/>
<path id="Vector_11" opacity="0.1" d="M373.941 588.964C375.256 592.911 510.78 587.648 512.096 586.332C513.243 584.684 514.213 582.92 514.99 581.069H373.848C373.677 585.24 373.677 588.174 373.941 588.964Z" fill="black"/>
<path id="Vector_12" d="M216.049 265.286C248.749 265.286 275.258 238.777 275.258 206.076C275.258 173.376 248.749 146.867 216.049 146.867C183.348 146.867 156.839 173.376 156.839 206.076C156.839 238.777 183.348 265.286 216.049 265.286Z" fill="#A0616A"/>
<path id="Vector_13" d="M212.102 258.707C212.102 258.707 192.365 292.917 188.418 311.337C184.471 329.758 129.208 274.496 129.208 274.496L121.972 255.417C121.972 255.417 173.944 231.076 169.997 211.339C166.05 191.603 212.102 258.707 212.102 258.707Z" fill="#A0616A"/>
<g id="right-arm">
<path id="Vector_14" d="M222.628 361.336L276.574 432.388L405.519 528.438C405.519 528.438 498.938 548.175 477.886 562.648C456.834 577.122 396.309 549.491 396.309 549.491C396.309 549.491 266.048 479.755 238.417 450.808C210.786 421.862 159.471 373.178 159.471 373.178L222.628 361.336Z" fill="#A0616A"/>
</g>
<path id="Vector_15" d="M150.261 471.861L166.05 496.86L260.281 467.214C280.957 460.71 303.629 463.103 321.968 474.657C338.415 485.018 348.941 501.465 325.257 525.807C277.89 574.49 246.312 548.175 246.312 548.175C246.312 548.175 87.104 623.173 60.7887 586.332C34.4734 549.491 33.1577 531.07 33.1577 531.07C33.1577 531.07 134.472 467.913 150.261 471.861Z" fill="#2F2E41"/>
<path id="Vector_16" d="M347.625 558.701C347.625 558.701 389.73 586.332 339.731 599.49C289.732 612.647 252.89 594.227 252.89 594.227C252.89 594.227 209.47 594.227 209.47 571.859C209.47 549.491 223.943 546.859 223.943 546.859L268.679 553.438C268.679 553.438 322.626 538.965 347.625 558.701Z" fill="#D0CDE1"/>
<path id="Vector_17" d="M289.871 194.677C294.694 196.573 299.476 198.816 304.72 199.366C309.963 199.916 315.934 198.302 318.416 194.193C319.756 191.974 319.909 189.364 319.971 186.85C320.161 179.228 319.536 170.988 314.056 165.089C310.569 161.335 305.478 158.968 301.868 155.305C299.282 152.681 297.561 149.5 295.708 146.431C288.687 134.809 278.293 123.638 263.847 120.288C257.815 118.888 251.487 118.957 245.25 119.034L208.871 119.487C202.984 119.56 197.006 119.645 191.37 121.147C179.661 124.268 171.135 132.948 163.327 141.249C157.485 147.459 151.628 153.733 147.244 160.815C140.958 171.149 137.78 182.73 138.012 194.454C137.963 197.461 138.404 200.458 139.32 203.355C140.391 206.012 141.719 208.583 143.288 211.04C150.111 222.852 154.162 237.606 146.478 249C159.825 244.194 173.03 237.893 181.834 227.829C185.773 223.327 188.861 218.057 194.11 214.753C199.359 211.45 207.911 211.163 211.279 216.012C212.437 217.973 213.033 220.154 213.015 222.365C213.261 226.005 213.255 229.784 215.005 233.088C216.756 236.391 220.925 239.056 224.907 238.068C231.763 236.365 231.106 227.09 236.387 222.876C240.397 219.676 246.584 220.288 251.736 218.835C257.739 217.143 262.243 212.559 264.81 207.485C266.76 203.628 266.732 193.535 270.424 191.446C275.053 188.827 285.58 192.991 289.871 194.677Z" fill="#2F2E41"/>
<path id="Vector_18" d="M117.272 249.176C119.935 248.465 122.74 248.472 125.4 249.197C133.846 251.464 152.78 257.467 156.839 266.601C162.103 278.443 180.523 296.864 180.523 296.864C180.523 296.864 205.523 321.863 200.26 338.968C194.997 356.073 175.26 375.81 175.26 375.81C175.26 375.81 180.523 457.387 154.208 478.439C127.893 499.492 117.367 485.018 117.367 504.755C117.367 524.491 35.7892 586.332 20 548.175C20 548.175 27.8946 477.124 25.2631 452.124C22.6695 427.485 26.4663 273.759 117.272 249.176Z" fill="#D0CDE1"/>
<path id="Vector_19" d="M159.471 282.39C159.471 282.39 239.733 341.6 225.259 366.599C225.259 366.599 176.576 390.283 166.05 388.967C155.524 387.652 114.735 341.6 104.209 337.653C93.6828 333.705 88.4198 262.654 159.471 282.39Z" fill="#D0CDE1"/>
</g>
</svg>
